# xmcd
#
# Track frame offsets:
# 150
# 18427
# 38857
# 57122
# 73000
# 92902
# 112937
# 130377
# 146282
# 161145
# 178402
#
# Disc length: 2477 seconds
#
#
# Revision: 2
# Processed by: cddbd v1.4PL0 Copyright (c) Steve Scherf et al.
# Submitted via: FreeRIP 2.30 
#
DISCID=9a09ab0b
DTITLE=Julio Iglesias - Un Hombre Solo
DYEAR=1900
DGENRE=
TTITLE0=O Melhor De Tua Vida
TTITLE1=Todo O Amor Que Te Faz Falta
TTITLE2=O Que Fazer
TTITLE3=Procure Ser Feliz
TTITLE4=Que No Se Rompa La Noche
TTITLE5=America
TTITLE6=Un Hombre Solo
TTITLE7=Intentando Otra Vez Enamorarte
TTITLE8=Doce Superstar
TTITLE9=Evadiendome
TTITLE10=El Mar Que Llevo Dentro
EXTD=
EXTT0=
EXTT1=
EXTT2=
EXTT3=
EXTT4=
EXTT5=
EXTT6=
EXTT7=
EXTT8=
EXTT9=
EXTT10=
PLAYORDER=
